<?xml version="1.0" encoding="iso-8859-1"?>
<!-- Generator: Adobe Illustrator 16.0.0, SVG Export Plug-In . SVG Version: 6.00 Build 0)  -->
<!DOCTYPE svg PUBLIC "-//W3C//DTD SVG 1.1//EN" "http://www.w3.org/Graphics/SVG/1.1/DTD/svg11.dtd">
<svg version="1.1" id="Capa_1" xmlns="http://www.w3.org/2000/svg" xmlns:xlink="http://www.w3.org/1999/xlink" x="0px" y="0px"
	 width="482.365px" height="482.365px" viewBox="0 0 482.365 482.365" style="enable-background:new 0 0 482.365 482.365;"
	 xml:space="preserve">
<g>
	<path d="M183.343,418.182h-31.161c-5.523,0-10-4.478-10-10s4.477-10,10-10h31.161c5.523,0,10,4.478,10,10
		S188.866,418.182,183.343,418.182z"/>
	<g>
		<path d="M197.559,346.965l-57.912-57.912c-1.875-1.875-4.418-2.929-7.071-2.929H56.995c-5.523,0-10,4.478-10,10s4.477,10,10,10
			h71.44l44.198,44.197l-23.874,9.405c-13.5-24.508-39.581-41.153-69.483-41.153C35.563,318.573,0,354.137,0,397.85
			s35.563,79.275,79.276,79.275c43.713,0,79.276-35.562,79.276-79.275c0-6.736-0.85-13.275-2.439-19.523l38.042-14.986
			c3.136-1.236,5.438-3.969,6.125-7.269S199.943,349.348,197.559,346.965z M79.275,457.125c-32.685,0-59.276-26.592-59.276-59.275
			c0-32.686,26.591-59.276,59.276-59.276c21.449,0,40.273,11.45,50.681,28.562l-54.347,21.41c-5.138,2.023-7.663,7.832-5.639,12.971
			c1.551,3.936,5.319,6.336,9.307,6.336c1.219,0,2.459-0.225,3.663-0.697l54.362-21.418c0.815,3.912,1.249,7.963,1.249,12.113
			C138.551,430.535,111.96,457.125,79.275,457.125z"/>
		<path d="M403.09,318.574c-2.982,0-5.922,0.18-8.822,0.502l-2.561-10.561c2.166-0.297,4.344-0.52,6.535-0.642
			c15.016-0.844,30.135,2.392,43.719,9.347c4.916,2.519,10.941,0.573,13.457-4.343c2.518-4.915,0.572-10.94-4.344-13.458
			c-16.738-8.57-35.393-12.555-53.949-11.514c-3.408,0.191-6.795,0.562-10.154,1.093l-14.926-61.528
			c-0.676-2.787-2.516-5.149-5.051-6.487l-31.031-16.375c-0.09-0.047-0.182-0.082-0.271-0.126
			c-0.932-6.537-6.084-11.936-12.951-12.862l-41.828-5.648l-39.814-63.638c-0.376-0.596-0.799-1.209-1.235-1.779
			c-3.838-5.945-9.381-10.737-16.02-13.619c27.514-0.657,49.627-23.156,49.627-50.833c0-28.095-22.773-50.866-50.861-50.866
			c-28.094,0-50.867,22.771-50.867,50.866c0,22.207,14.239,41.079,34.081,48.015c-16.81,1.653-30.694,14.944-32.475,32.397
			l-0.64,6.272c0,0-6.041,42.15-33.261,97.764c-7.613,17.219-1.764,33.469,8.962,45.411c7.008,7.496,17.758,12.371,31.5,14.912
			l61.765,12.785l-41.703,87.572c-4.145,8.678-1.211,19.275,7.133,24.504c8.978,5.627,20.818,2.912,26.445-6.066l70.473-112.439
			c1.412-2.273,2.555-4.9,3.213-7.646c3.312-13.793-5.188-27.659-18.979-30.969l-1.886-0.452l-56.388-13.533
			c0.366-1.199,0.745-2.441,1.146-3.742c0.831-2.914,1.786-6.043,2.686-9.396c0.906-3.349,1.876-6.865,2.77-10.563
			c0.454-1.842,0.915-3.716,1.383-5.612c0.433-1.917,0.869-3.859,1.31-5.816c0.917-3.877,1.658-7.968,2.466-11.984
			c0.555-2.83,1.026-5.714,1.494-8.579l11.353,14.773l1.312,1.71c2.931,3.767,7.502,6.195,12.645,6.208l52.133-0.068
			c1.43,0.005,2.82-0.157,4.145-0.489c0.547,0.463,1.146,0.878,1.805,1.226l27.045,14.27l13.938,57.45
			c-22.664,8.244-42.467,24.168-54.961,45.107c-2.83,4.743-1.277,10.881,3.463,13.711c1.607,0.959,3.371,1.414,5.115,1.414
			c3.406,0,6.725-1.74,8.598-4.877c9.756-16.352,25.008-28.93,42.529-35.799l2.48,10.223
			c-29.799,11.408-51.021,40.291-51.021,74.051c0,1.168,0.037,2.324,0.088,3.48h-62.723c-5.522,0-10,4.477-10,10
			c0,5.521,4.478,10,10,10h66c0.061,0,0.119-0.01,0.18-0.01c10.027,32.291,40.184,55.807,75.729,55.807
			c43.713,0,79.275-35.564,79.275-79.277S446.803,318.574,403.09,318.574z M403.09,457.125c-32.686,0-59.277-26.592-59.277-59.275
			c0-24.344,14.754-45.297,35.787-54.412l13.771,56.77c1.109,4.574,5.201,7.645,9.711,7.645c0.779,0,1.572-0.092,2.363-0.283
			c5.367-1.303,8.664-6.709,7.361-12.076l-13.771-56.764c1.342-0.092,2.689-0.154,4.055-0.154c32.684,0,59.275,26.591,59.275,59.275
			C462.365,430.535,435.773,457.125,403.09,457.125z"/>
	</g>
</g>
<g>
</g>
<g>
</g>
<g>
</g>
<g>
</g>
<g>
</g>
<g>
</g>
<g>
</g>
<g>
</g>
<g>
</g>
<g>
</g>
<g>
</g>
<g>
</g>
<g>
</g>
<g>
</g>
<g>
</g>
</svg>
