<?xml version="1.0" encoding="iso-8859-1"?>
<!-- Generator: Adobe Illustrator 16.0.0, SVG Export Plug-In . SVG Version: 6.00 Build 0)  -->
<!DOCTYPE svg PUBLIC "-//W3C//DTD SVG 1.1//EN" "http://www.w3.org/Graphics/SVG/1.1/DTD/svg11.dtd">
<svg version="1.1" id="Capa_1" xmlns="http://www.w3.org/2000/svg" xmlns:xlink="http://www.w3.org/1999/xlink" x="0px" y="0px"
	 width="122.493px" height="122.493px" viewBox="0 0 122.493 122.493" style="enable-background:new 0 0 122.493 122.493;"
	 xml:space="preserve">
<g>
	<g>
		<circle cx="92.145" cy="31.69" r="16.068"/>
		<path d="M121.428,97.146c-1.557-2.306-2.986-4.395-4.299-6.319c-6.9-10.097-10.361-15.176-13.004-23.378l0.51-1.268
			c2.441-6.112-1.283-12.357-5.779-15.572c0,0-1.385-1.099-3.071-1.73c-1.611-0.604-3.543-0.945-3.543-0.945l-0.045-0.011
			c-5.509-0.778-12.49,1.175-14.943,7.312L64.084,88.166c-0.18,0.447-0.326,0.896-0.443,1.343L8.5,89.54
			c-4.697,0.002-8.502,3.812-8.5,8.512c0.002,4.696,3.809,8.5,8.506,8.5c0,0,0.002,0,0.004,0l68.977-0.041
			c0.396,0,0.78-0.037,1.159-0.089c5.107,0.245,10.621-1.817,12.818-7.309l6.18-15.455c2.4,4.272,5.351,8.595,9.185,14.207
			c1.301,1.905,2.715,3.973,4.252,6.255c1.207,1.787,3.172,2.751,5.179,2.751c1.2,0,2.411-0.345,3.481-1.067
			C122.598,103.878,123.352,100.002,121.428,97.146z"/>
	</g>
</g>
<g>
</g>
<g>
</g>
<g>
</g>
<g>
</g>
<g>
</g>
<g>
</g>
<g>
</g>
<g>
</g>
<g>
</g>
<g>
</g>
<g>
</g>
<g>
</g>
<g>
</g>
<g>
</g>
<g>
</g>
</svg>
